# xmcd CD database file
#
# Track frame offsets:
#	182
#	13400
#	26936
#	40714
#	54905
#	68798
#	81545
#	95584
#	109118
#	122683
#	135180
#	148555
#	160381
#	174461
#	187817
#	200399
#	214330
#	228554
#	240837
#	253496
#	265949
#	281223
#	295130
#
# Disc length: 4120 seconds
#
# Revision: 0
# Processed by: cddbd v1.4PL0 Copyright (c) Steve Scherf et al.
# Submitted via: CDex 1.50
#
DISCID=57101617
DTITLE=Tiny Grimes - 1944-1949
DYEAR=1944
DGENRE=Jazz
TTITLE0=Tiny's Tempo
TTITLE1=I'll Always Love You Just the Same
TTITLE2=Romance Without Finance
TTITLE3=Red Cross
TTITLE4=Groovin' with Grimes
TTITLE5=C Jam Blues
TTITLE6=Flying Home Part 1
TTITLE7=Flying Home Part 2
TTITLE8=Tiny's Boogie Woogie
TTITLE9=Profoundly Blue
TTITLE10=Blue Harlem
TTITLE11=That Old Black Magic
TTITLE12=Boogie Woogie Barbecue
TTITLE13=Annie Laurie
TTITLE14=Hot in Harlem
TTITLE15=Flying High
TTITLE16=Nightmare Blues
TTITLE17=Midnight Special
TTITLE18=See See Rider
TTITLE19=Jealousy
TTITLE20=The Sidewalks of New York
TTITLE21=Rock the House
TTITLE22=Jumpin' at Gleason's
EXTD=YEAR: 1944
EXTT0=
EXTT1=
EXTT2=
EXTT3=
EXTT4=
EXTT5=
EXTT6=
EXTT7=
EXTT8=
EXTT9=
EXTT10=
EXTT11=
EXTT12=
EXTT13=
EXTT14=
EXTT15=
EXTT16=
EXTT17=
EXTT18=
EXTT19=
EXTT20=
EXTT21=
EXTT22=
PLAYORDER=
